<?xml version="1.0" encoding="UTF-8" standalone="no"?>
<svg
   xmlns:dc="http://purl.org/dc/elements/1.1/"
   xmlns:cc="http://creativecommons.org/ns#"
   xmlns:rdf="http://www.w3.org/1999/02/22-rdf-syntax-ns#"
   xmlns:svg="http://www.w3.org/2000/svg"
   xmlns="http://www.w3.org/2000/svg"
   xmlns:xlink="http://www.w3.org/1999/xlink"
   id="svg8"
   version="1.1"
   viewBox="0 0 46.001419 18.139994"
   height="18.139994mm"
   width="46.001419mm">
  <defs
     id="defs2">
    <linearGradient
       id="linearGradient2325">
      <stop
         id="stop2321"
         offset="0"
         style="stop-color:#81b8de;stop-opacity:1;" />
      <stop
         id="stop2323"
         offset="1"
         style="stop-color:#81b8de;stop-opacity:0;" />
    </linearGradient>
    <linearGradient
       id="linearGradient2315">
      <stop
         id="stop2311"
         offset="0"
         style="stop-color:#000000;stop-opacity:1;" />
      <stop
         id="stop2313"
         offset="1"
         style="stop-color:#000000;stop-opacity:0;" />
    </linearGradient>
    <linearGradient
       gradientUnits="userSpaceOnUse"
       y2="78.217178"
       x2="155.08807"
       y1="78.406578"
       x1="120.89759"
       id="linearGradient2319"
       xlink:href="#linearGradient2315" />
    <linearGradient
       gradientUnits="userSpaceOnUse"
       y2="75.738861"
       x2="82.669518"
       y1="75.549477"
       x1="117.18018"
       id="linearGradient2327"
       xlink:href="#linearGradient2325" />
  </defs>
  <metadata
     id="metadata5">
    <rdf:RDF>
      <cc:Work
         rdf:about="">
        <dc:format>image/svg+xml</dc:format>
        <dc:type
           rdf:resource="http://purl.org/dc/dcmitype/StillImage" />
        <dc:title></dc:title>
      </cc:Work>
    </rdf:RDF>
  </metadata>
  <g
     transform="translate(-6.0633678,-11.169815)"
     id="layer1">
    <flowRoot
       style="font-style:normal;font-variant:normal;font-weight:normal;font-stretch:normal;font-size:42.66666794px;line-height:1.25;font-family:Phenomena;-inkscape-font-specification:Phenomena;letter-spacing:0px;word-spacing:0px;fill:#000000;fill-opacity:1;stroke:none"
       id="flowRoot4591"
       xml:space="preserve"><flowRegion
         id="flowRegion4593"><rect
           y="-0.81508499"
           x="19.399696"
           height="110.16256"
           width="124.25043"
           id="rect4595" /></flowRegion><flowPara
         id="flowPara4597" /></flowRoot>    <flowRoot
       style="font-style:normal;font-variant:normal;font-weight:normal;font-stretch:normal;font-size:42.66666794px;line-height:1.25;font-family:Phenomena;-inkscape-font-specification:Phenomena;letter-spacing:0px;word-spacing:0px;fill:#000000;fill-opacity:1;stroke:none"
       id="flowRoot4599"
       xml:space="preserve"><flowRegion
         id="flowRegion4601"><rect
           y="14.196585"
           x="9.9307966"
           height="72.748863"
           width="110.62446"
           id="rect4603" /></flowRegion><flowPara
         id="flowPara4605" /></flowRoot>    <rect
       y="11.169815"
       x="6.0633678"
       height="18.139994"
       width="46.001419"
       id="rect4635"
       style="fill:none;fill-opacity:1;fill-rule:nonzero;stroke:none;stroke-width:0.26458332;stroke-opacity:1" />
    <g
       id="flowRoot4518"
       style="font-style:normal;font-variant:normal;font-weight:normal;font-stretch:normal;font-size:85.33333588px;line-height:1.25;font-family:Phenomena;-inkscape-font-specification:Phenomena;letter-spacing:0px;word-spacing:0px;fill:url(#linearGradient2319);fill-opacity:1;stroke:none;stroke-opacity:1"
       transform="matrix(0.26458333,0,0,0.26458333,0.85040304,0.22236248)"
       aria-label="brille">
      <path
         id="path5826"
         style="font-size:85.33333588px;fill:url(#linearGradient2319);fill-opacity:1;stroke:none;stroke-opacity:1"
         d="m 37.552068,61.864454 q 5.802667,0 9.386667,3.84 3.669334,3.754667 3.669334,9.557333 v 17.578668 q 0,5.802667 -3.669334,9.642665 -3.584,3.75467 -9.386667,3.75467 -5.802667,0 -9.472,-3.75467 -3.584,-3.839998 -3.584,-9.642665 V 46.504453 q 0,-0.853333 0.853333,-0.853333 h 3.157334 q 0.853333,0 0.853333,0.853333 v 19.626668 q 3.413333,-4.266667 8.192,-4.266667 z m 8.192,13.397333 q 0,-3.925333 -2.218666,-6.314666 -2.218667,-2.389334 -5.973334,-2.389334 -3.754667,0 -5.973333,2.389334 -2.218667,2.389333 -2.218667,6.314666 v 17.578668 q 0,3.925333 2.218667,6.314667 2.218666,2.389328 5.973333,2.389328 3.754667,0 5.973334,-2.389328 2.218666,-2.389334 2.218666,-6.314667 z" />
      <path
         id="path5828"
         style="font-size:85.33333588px;fill:url(#linearGradient2319);fill-opacity:1;stroke:none;stroke-opacity:1"
         d="m 60.016069,105.38446 q -0.853333,0 -0.853333,-0.85334 V 75.603121 q 0,-5.802667 3.754667,-9.472 3.84,-3.669334 9.642667,-3.669334 h 3.754666 q 0.853334,0 0.853334,0.853333 v 2.986667 q 0,0.853334 -0.853334,0.853334 H 72.56007 q -3.840001,0 -6.229334,2.304 -2.304,2.218666 -2.304,6.144 v 28.927999 q 0,0.85334 -0.853333,0.85334 z" />
      <path
         id="path5830"
         style="font-size:85.33333588px;fill:url(#linearGradient2319);fill-opacity:1;stroke:none;stroke-opacity:1"
         d="m 84.53607,105.38446 q -0.853333,0 -0.853333,-0.85334 v -40.96 q 0,-0.853333 0.853333,-0.853333 h 3.157334 q 0.853333,0 0.853333,0.853333 v 40.96 q 0,0.85334 -0.853333,0.85334 z m 1.536,-48.21334 q -1.450666,0 -2.389333,-0.938666 -0.938667,-0.938667 -0.938667,-2.389334 0,-1.450667 0.938667,-2.389333 0.938667,-0.938667 2.389333,-0.938667 1.450667,0 2.389334,0.938667 0.938667,0.938666 0.938667,2.389333 0,1.365334 -1.024,2.389334 -0.938667,0.938666 -2.304001,0.938666 z" />
      <path
         id="path5832"
         style="font-size:85.33333588px;fill:url(#linearGradient2319);fill-opacity:1;stroke:none;stroke-opacity:1"
         d="m 100.36941,105.38446 q -0.853337,0 -0.853337,-0.85334 V 46.504453 q 0,-0.853333 0.853337,-0.853333 h 3.15733 q 0.85333,0 0.85333,0.853333 v 58.026667 q 0,0.85334 -0.85333,0.85334 z" />
      <path
         id="path5834"
         style="font-size:85.33333588px;fill:url(#linearGradient2319);fill-opacity:1;stroke:none;stroke-opacity:1"
         d="m 116.20273,105.38446 q -0.85333,0 -0.85333,-0.85334 V 46.504453 q 0,-0.853333 0.85333,-0.853333 h 3.15734 q 0.85333,0 0.85333,0.853333 v 58.026667 q 0,0.85334 -0.85333,0.85334 z" />
      <path
         id="path5836"
         style="font-size:85.33333588px;fill:url(#linearGradient2319);fill-opacity:1;stroke:none;stroke-opacity:1"
         d="m 142.03207,106.15246 q -5.888,0 -9.472,-3.66934 -3.584,-3.669332 -3.584,-9.727999 V 75.432454 q 0,-5.973333 3.49867,-9.728 3.584,-3.754667 9.55733,-3.754667 5.80267,0 9.38667,3.754667 3.66933,3.669333 3.66933,9.386667 0,5.376 -3.66933,8.96 -3.584,3.498667 -9.38667,3.498667 h -8.192 v 5.205333 q 0,3.925334 2.21867,6.314667 2.21866,2.389332 5.97333,2.389332 3.584,0 5.71733,-2.389332 2.21867,-2.389333 2.38934,-6.314667 0,-0.853333 0.85333,-0.853333 h 3.15733 q 0.85334,0 0.85334,0.853333 -0.17067,5.973334 -3.75467,9.727999 -3.584,3.66934 -9.216,3.66934 z m 0,-23.296006 q 3.75467,0 5.97333,-2.133333 2.21867,-2.218667 2.21867,-5.632 0,-3.754667 -2.21867,-6.058667 -2.21866,-2.389333 -5.97333,-2.389333 -3.92533,0 -6.05867,2.389333 -2.13333,2.389333 -2.13333,6.4 v 7.424 z" />
    </g>
    <g
       id="flowRoot4526"
       style="font-style:normal;font-variant:normal;font-weight:800;font-stretch:normal;font-size:42.66666794px;line-height:1.25;font-family:Phenomena;-inkscape-font-specification:'Phenomena Ultra-Bold';letter-spacing:0px;word-spacing:0px;fill:url(#linearGradient2327);fill-opacity:1;fill-rule:nonzero;stroke:none"
       transform="matrix(0.26458333,0,0,0.26458333,10.940384,0.36855835)"
       aria-label="eu">
      <path
         id="path5839"
         style="font-style:normal;font-variant:normal;font-weight:800;font-stretch:normal;font-size:85.33333588px;font-family:Phenomena;-inkscape-font-specification:'Phenomena Ultra-Bold';fill:url(#linearGradient2327);fill-opacity:1;fill-rule:nonzero"
         d="m 103.85424,105.63468 q -6.229333,0 -10.069334,-3.92533 -3.84,-4.010667 -3.84,-10.496001 v -16.128 q 0.170667,-6.314667 4.096,-10.154667 3.925334,-3.84 10.410664,-3.84 6.05867,0 9.89867,3.925333 3.92533,3.84 3.92533,9.984001 0,5.888 -3.92533,9.557333 -3.84,3.669334 -10.06933,3.669334 h -4.18134 v 3.584 q 0,2.048 1.024,3.242667 1.024,1.109333 2.816,1.109333 1.62134,0 2.56,-0.938667 1.024,-0.938666 1.28,-2.645333 0.256,-1.450667 1.536,-1.450667 h 7.168 q 1.45067,0 1.45067,1.536 -0.42667,5.802667 -4.26667,9.386664 -3.84,3.584 -9.81333,3.584 z m 0.42667,-26.282664 q 1.87733,0 2.90133,-1.024 1.024,-1.109334 1.024,-3.072 0,-2.304 -1.10933,-3.498667 -1.024,-1.194667 -2.98667,-1.194667 -1.96267,0 -2.98667,1.194667 -1.024,1.109333 -1.024,3.157333 v 4.437334 z" />
      <path
         id="path5841"
         style="font-style:normal;font-variant:normal;font-weight:800;font-stretch:normal;font-size:85.33333588px;font-family:Phenomena;-inkscape-font-specification:'Phenomena Ultra-Bold';fill:url(#linearGradient2327);fill-opacity:1;fill-rule:nonzero"
         d="m 132.32358,62.029349 q 1.45066,0 1.45066,1.450666 v 28.330668 q 0,1.962667 1.024,3.157333 1.024,1.194667 2.90134,1.194667 1.792,0 2.816,-1.194667 1.024,-1.194666 1.024,-3.157333 V 63.480015 q 0,-1.450666 1.536,-1.450666 h 7.08266 q 1.45067,0 1.45067,1.450666 v 27.733334 q 0,6.485334 -3.84,10.496001 -3.84,4.01067 -10.06933,4.01067 -6.22934,0 -10.06934,-4.01067 -3.84,-4.010667 -3.84,-10.496001 V 63.480015 q 0,-1.450666 1.45067,-1.450666 z" />
    </g>
  </g>
</svg>
